<svg width="353" height="69" viewBox="0 0 353 69" fill="none" xmlns="http://www.w3.org/2000/svg">
<path d="M89.9443 10.054C90.3747 9.2806 91.0937 8.70898 91.9443 8.464C93.1342 8.12756 94.3681 7.97248 95.6043 8.004C96.7761 7.97183 97.9469 8.09967 99.0843 8.384C99.803 8.55666 100.482 8.86557 101.084 9.294C101.568 9.69178 101.935 10.2138 102.144 10.804C102.438 12.0889 102.563 13.4068 102.514 14.724V56.644C102.531 57.5121 102.494 58.3804 102.404 59.244C102.291 59.9497 102.047 60.628 101.684 61.244C100.984 62.604 99.0143 63.244 95.7943 63.244C92.2743 63.244 90.2109 62.314 89.6043 60.454C89.2509 59.1754 89.0991 57.8494 89.1543 56.524V41.234H69.1543V56.644C69.1659 57.512 69.1291 58.3801 69.0443 59.244C68.9216 59.9473 68.678 60.6239 68.3243 61.244C67.6243 62.604 65.6543 63.244 62.4343 63.244C58.9143 63.244 56.8509 62.314 56.2443 60.454C55.8909 59.1754 55.7391 57.8494 55.7943 56.524V14.664C55.7824 13.7926 55.8191 12.9213 55.9043 12.054C56.0285 11.3512 56.272 10.6747 56.6243 10.054C57.3243 8.694 59.2943 8.054 62.5143 8.054C66.0343 8.054 68.1209 8.98733 68.7743 10.854C69.0778 12.1374 69.2056 13.4562 69.1543 14.774V30.174H89.1543V14.664C89.1424 13.7926 89.1791 12.9213 89.2643 12.054C89.376 11.3536 89.6059 10.6773 89.9443 10.054Z" fill="#007AFF"/>
<path d="M134.344 27.7939C134.644 24.9873 136.644 23.5806 140.344 23.5739C141.818 23.5184 143.292 23.6699 144.724 24.0239C145.149 24.134 145.546 24.3313 145.89 24.6033C146.235 24.8754 146.519 25.2161 146.724 25.6039C147.06 26.2282 147.29 26.9041 147.404 27.6039C147.494 28.4709 147.531 29.3425 147.514 30.2139V56.6439C147.531 57.512 147.494 58.3804 147.404 59.2439C147.295 59.9396 147.079 60.6143 146.764 61.2439C146.051 62.5773 144.327 63.2439 141.594 63.2439C138.844 63.2439 137.014 62.9039 136.084 62.2439C135.611 61.8918 135.221 61.4411 134.939 60.9231C134.658 60.4051 134.492 59.8322 134.454 59.2439C132.594 61.9106 129.487 63.2439 125.134 63.2439C120.781 63.2439 116.741 61.2439 113.014 57.2439C109.415 53.5377 107.402 48.575 107.402 43.4089C107.402 38.2429 109.415 33.2802 113.014 29.5739C116.767 25.6273 120.881 23.6506 125.354 23.6439C126.96 23.6217 128.553 23.9315 130.034 24.5539C131.104 24.9545 132.101 25.5289 132.984 26.2539C133.485 26.7233 133.94 27.2389 134.344 27.7939ZM120.594 43.5039C120.607 44.3486 120.791 45.1818 121.135 45.9534C121.479 46.7251 121.975 47.4192 122.594 47.9939C123.205 48.6374 123.942 49.1473 124.76 49.4915C125.577 49.8357 126.457 50.0068 127.344 49.9939C128.221 50.0237 129.093 49.861 129.9 49.5171C130.707 49.1733 131.428 48.6568 132.014 48.0039C133.183 46.7996 133.846 45.1924 133.864 43.5139C133.834 41.7993 133.176 40.1553 132.014 38.8939C131.437 38.2017 130.708 37.6515 129.885 37.2856C129.061 36.9198 128.165 36.7481 127.264 36.7839C126.351 36.7528 125.443 36.9261 124.605 37.2911C123.768 37.6562 123.023 38.2038 122.424 38.8939C121.263 40.1501 120.611 41.7934 120.594 43.5039Z" fill="#007AFF"/>
<path d="M175.334 23.644C179.814 23.644 183.931 25.644 187.684 29.644C191.276 33.3539 193.284 38.3153 193.284 43.479C193.284 48.6428 191.276 53.6041 187.684 57.314C183.951 61.2607 179.951 63.234 175.684 63.234C171.417 63.234 168.371 62.0274 166.544 59.614C166.144 62.0807 163.981 63.314 160.054 63.314C156.887 63.314 154.951 62.6474 154.244 61.314C153.929 60.6843 153.713 60.0097 153.604 59.314C153.51 58.4507 153.47 57.5824 153.484 56.714V11.564C153.469 10.6957 153.509 9.82728 153.604 8.96403C153.715 8.27742 153.941 7.61463 154.274 7.00403C154.974 5.64403 156.944 5.00403 160.164 5.00403C163.384 5.00403 165.244 5.68403 165.904 7.00403C166.258 7.62321 166.498 8.30047 166.614 9.00403C166.709 9.87065 166.749 10.7424 166.734 11.614V27.314C168.747 24.874 171.614 23.6507 175.334 23.644ZM168.734 48.004C169.316 48.6548 170.032 49.1708 170.833 49.5163C171.635 49.8617 172.502 50.0281 173.374 50.004C175.121 49.9747 176.791 49.2776 178.041 48.0559C179.291 46.8341 180.025 45.1803 180.094 43.434C180.082 41.7383 179.436 40.1084 178.284 38.864C177.685 38.1796 176.94 37.6377 176.104 37.2778C175.269 36.9179 174.363 36.7492 173.454 36.784C172.545 36.7462 171.64 36.9177 170.807 37.2853C169.975 37.6528 169.238 38.2067 168.654 38.904C167.533 40.1643 166.904 41.7872 166.884 43.474C166.889 45.1669 167.553 46.7915 168.734 48.004Z" fill="#007AFF"/>
<path d="M210.634 16.204C210.424 16.5851 210.138 16.9192 209.795 17.1858C209.451 17.4524 209.056 17.6457 208.634 17.754C206.126 18.3539 203.512 18.3539 201.004 17.754C200.58 17.6423 200.184 17.4443 199.84 17.1725C199.495 16.9006 199.211 16.5607 199.004 16.174C198.678 15.5456 198.448 14.8713 198.324 14.174C198.239 13.3067 198.202 12.4354 198.214 11.564C198.202 10.696 198.239 9.82794 198.324 8.96403C198.442 8.27643 198.675 7.61374 199.014 7.00403C199.681 5.67069 201.641 5.00403 204.894 5.00403C208.148 5.00403 210.061 5.67069 210.634 7.00403C210.987 7.62477 211.23 8.30119 211.354 9.00403C211.444 9.87094 211.481 10.7426 211.464 11.614C211.481 12.4821 211.444 13.3504 211.354 14.214C211.232 14.9141 210.988 15.5875 210.634 16.204ZM198.214 30.204C198.202 29.3327 198.239 28.4613 198.324 27.594C198.44 26.8987 198.659 26.2246 198.974 25.594C199.674 24.294 201.634 23.594 204.854 23.594C207.274 23.594 208.988 24.0207 209.994 24.874C210.443 25.2845 210.798 25.7879 211.032 26.3491C211.267 26.9104 211.377 27.5161 211.354 28.124C211.354 28.624 211.424 29.364 211.424 30.314V56.794C211.441 57.6621 211.405 58.5305 211.314 59.394C211.192 60.0973 210.948 60.7739 210.594 61.394C209.928 62.7274 207.991 63.394 204.784 63.394C201.578 63.394 199.641 62.7274 198.974 61.394C198.658 60.7639 198.439 60.0896 198.324 59.394C198.237 58.5168 198.2 57.6354 198.214 56.754V30.204Z" fill="#007AFF"/>
<path d="M239.284 23.644C243.764 23.644 247.881 25.644 251.634 29.644C255.226 33.3539 257.234 38.3153 257.234 43.479C257.234 48.6428 255.226 53.6041 251.634 57.314C247.908 61.2607 243.908 63.234 239.634 63.234C235.361 63.234 232.314 62.0274 230.494 59.614C230.094 62.0807 227.931 63.314 224.004 63.314C220.831 63.314 218.894 62.6474 218.194 61.314C217.879 60.6843 217.663 60.0097 217.554 59.314C217.46 58.4507 217.42 57.5824 217.434 56.714V11.564C217.419 10.6957 217.459 9.82728 217.554 8.96403C217.665 8.27742 217.891 7.61463 218.224 7.00403C218.924 5.64403 220.894 5.00403 224.114 5.00403C227.334 5.00403 229.194 5.68403 229.854 7.00403C230.208 7.62321 230.448 8.30047 230.564 9.00403C230.659 9.87065 230.699 10.7424 230.684 11.614V27.314C232.698 24.874 235.564 23.6507 239.284 23.644ZM232.684 48.004C233.266 48.6548 233.982 49.1708 234.783 49.5163C235.585 49.8617 236.452 50.0281 237.324 50.004C239.055 49.9682 240.708 49.2775 241.949 48.0713C243.191 46.865 243.929 45.2329 244.014 43.504C244.002 41.8083 243.356 40.1784 242.204 38.934C241.605 38.2496 240.86 37.7077 240.024 37.3478C239.189 36.9879 238.283 36.8192 237.374 36.854C236.465 36.8162 235.56 36.9877 234.727 37.3553C233.895 37.7228 233.159 38.2767 232.574 38.974C231.453 40.2343 230.824 41.8572 230.804 43.544C230.835 45.2168 231.509 46.8136 232.684 48.004Z" fill="#007AFF"/>
<path d="M41.7041 62.504C39.8401 62.3769 38.0427 61.7594 36.4941 60.714L4.26414 41.584C2.26414 40.584 0.0141352 38.514 0.0141352 34.174C-0.0780699 32.6423 0.282351 31.1174 1.05051 29.7891C1.81867 28.4609 2.96062 27.3879 4.33414 26.704C21.4641 16.564 31.4441 10.634 34.0141 9.08395C35.5974 8.02028 37.2704 7.09678 39.0141 6.32395C39.9215 5.95354 40.8942 5.76988 41.8741 5.78395C45.3341 5.78395 47.5341 9.48395 48.2541 10.704C49.2604 12.1135 49.8684 13.7682 50.0141 15.494C50.0323 16.6479 49.7275 17.784 49.1341 18.774C48.1335 20.2516 46.8102 21.4826 45.2641 22.374L45.1641 22.434C34.5541 28.704 28.5941 32.234 25.3541 34.164L45.1641 45.924C46.0168 46.3866 46.8238 46.9291 47.5741 47.544C48.3359 48.1024 48.9592 48.8284 49.3961 49.6658C49.833 50.5032 50.0718 51.4297 50.0941 52.374C50.0039 54.1664 49.4152 55.898 48.3941 57.374C47.6239 58.7231 46.6527 59.9471 45.5141 61.004C44.4697 61.9521 43.1146 62.4856 41.7041 62.504ZM41.8141 10.774C41.5101 10.7714 41.2082 10.8256 40.9241 10.934C40.8209 10.9827 40.7139 11.0228 40.6041 11.054C39.2303 11.7516 37.895 12.5227 36.6041 13.364C34.0141 14.924 24.0141 20.864 6.80414 31.004L6.65414 31.084C5.84414 31.534 5.01414 32.214 5.01414 34.174C5.01414 36.134 5.79414 36.774 6.55414 37.174L6.73414 37.264L39.0141 56.414C39.7965 56.986 40.7057 57.36 41.6641 57.504C41.8762 57.4552 42.0702 57.3478 42.2241 57.194C42.9626 56.4645 43.5924 55.6327 44.0941 54.724C44.6222 54.0386 44.9664 53.2297 45.0941 52.374C45.0941 52.014 44.5741 51.544 44.3441 51.374C43.8096 50.9461 43.2373 50.5679 42.6341 50.244L19.2041 36.324C18.8407 36.1082 18.5379 35.8038 18.3241 35.4392C18.1103 35.0747 17.9923 34.6618 17.9814 34.2393C17.9704 33.8168 18.0667 33.3984 18.2613 33.0232C18.4559 32.6481 18.7424 32.3283 19.0941 32.094C19.3641 31.924 20.0941 31.454 42.5641 18.164C43.4378 17.6977 44.2016 17.0499 44.8041 16.264L44.8741 16.154C44.9781 15.9501 45.0264 15.7224 45.0141 15.494C44.7846 14.7022 44.4229 13.955 43.9441 13.284C42.6041 11.004 41.8241 10.774 41.8141 10.774Z" fill="#007AFF"/>
<path d="M268.014 68.274C266.335 68.1612 264.697 67.7015 263.204 66.924C261.705 66.3261 260.318 65.4773 259.104 64.414C258.605 63.9345 258.206 63.3603 257.932 62.725C257.657 62.0897 257.511 61.4061 257.504 60.714C257.608 59.1526 257.945 57.6155 258.504 56.154C258.535 56.0551 258.571 55.9583 258.614 55.864L282.924 5.05399C284.194 2.50399 285.364 1.10399 286.714 0.523988C287.598 0.148022 288.554 -0.0294805 289.514 0.00398843C291.211 0.143605 292.862 0.630324 294.364 1.43399C298.054 3.21399 299.904 5.43399 299.904 8.01399C299.904 8.72399 299.764 9.83399 298.684 12.674C298.663 12.7429 298.637 12.8099 298.604 12.874L274.374 63.224C273.944 64.134 273.604 64.804 273.374 65.224C272.911 66.0212 272.276 66.7046 271.514 67.224C270.487 67.9337 269.262 68.3011 268.014 68.274ZM262.504 60.714C262.547 60.7707 262.593 60.8242 262.644 60.874C263.437 61.5049 264.325 62.0077 265.274 62.364C266.123 62.8354 267.052 63.144 268.014 63.274C268.226 63.2914 268.438 63.2571 268.634 63.174C268.788 63.0749 268.926 62.9536 269.044 62.814C269.174 62.574 269.434 62.074 269.894 61.084L294.014 10.804C294.424 9.91063 294.723 8.97025 294.904 8.00399C294.904 7.82399 294.414 7.00399 292.244 6.00399C291.394 5.5249 290.472 5.18716 289.514 5.00399C289.276 4.99288 289.037 5.01306 288.804 5.06399C288.225 5.70427 287.758 6.43797 287.424 7.23399L263.184 57.874C262.823 58.7865 262.578 59.7406 262.454 60.714H262.504Z" fill="#007AFF"/>
<path d="M311.014 62.494C309.544 62.4989 308.123 61.9694 307.014 61.004C305.953 60.0466 305.042 58.934 304.314 57.704C303.004 55.534 302.424 54.014 302.424 52.704C302.407 51.6035 302.669 50.5165 303.184 49.544C303.211 49.4872 303.245 49.4336 303.284 49.384C304.353 47.9168 305.746 46.7157 307.354 45.874L327.204 34.124L307.414 22.444C306.621 21.9754 305.853 21.4647 305.114 20.914L305.014 20.824C304.248 20.2311 303.624 19.4744 303.188 18.6093C302.752 17.7442 302.515 16.7926 302.494 15.824C302.576 14.0641 303.144 12.3611 304.134 10.904C306.194 7.45405 308.324 5.77405 310.654 5.77405C312.593 5.85678 314.469 6.48787 316.064 7.59405L348.174 26.694C349.548 27.378 350.69 28.451 351.458 29.7792C352.226 31.1075 352.586 32.6324 352.494 34.164C352.494 38.504 350.204 40.584 348.244 41.574L316.084 60.724C314.6 61.7904 312.839 62.405 311.014 62.494ZM307.464 52.764C307.734 53.5917 308.121 54.3763 308.614 55.094C309.067 55.8764 309.633 56.5875 310.294 57.204C310.504 57.384 311.194 57.9641 313.494 56.474L345.814 37.254L346.004 37.154C346.764 36.784 347.544 36.154 347.544 34.154C347.544 32.154 346.714 31.514 345.904 31.104C345.848 31.0834 345.794 31.0566 345.744 31.024L313.454 11.874C312.638 11.2628 311.669 10.8891 310.654 10.794C310.654 10.794 309.874 11.064 308.424 13.494C307.918 14.1848 307.598 14.994 307.494 15.844C307.535 16.0767 307.621 16.2989 307.748 16.498C307.875 16.6971 308.04 16.8691 308.234 17.004C308.514 17.214 309.034 17.574 309.994 18.164L333.374 32.004C333.747 32.2267 334.056 32.5424 334.27 32.9201C334.485 33.2978 334.597 33.7247 334.597 34.159C334.597 34.5934 334.485 35.0203 334.27 35.398C334.056 35.7757 333.747 36.0914 333.374 36.314L309.894 50.234C308.999 50.6983 308.196 51.3218 307.524 52.074C307.444 52.2949 307.406 52.5291 307.414 52.764H307.464Z" fill="#007AFF"/>
</svg>
