<svg width="353" height="69" viewBox="0 0 353 69" fill="none" xmlns="http://www.w3.org/2000/svg">
<g clip-path="url(#clip0_4305_157)">
<path d="M89.9301 10.05C90.3605 9.27657 91.0796 8.70495 91.9301 8.45997C93.12 8.12353 94.3539 7.96845 95.5901 7.99997C96.762 7.9678 97.9328 8.09564 99.0701 8.37997C99.7888 8.55263 100.468 8.86155 101.07 9.28997C101.554 9.68775 101.92 10.2097 102.13 10.8C102.424 12.0849 102.549 13.4028 102.5 14.72V56.64C102.517 57.5081 102.48 58.3764 102.39 59.24C102.277 59.9457 102.033 60.6239 101.67 61.24C100.97 62.6 99.0001 63.24 95.7801 63.24C92.2601 63.24 90.1968 62.31 89.5901 60.45C89.2367 59.1713 89.0849 57.8454 89.1401 56.52V41.23H69.1401V56.64C69.1517 57.508 69.115 58.376 69.0301 59.24C68.9074 59.9432 68.6638 60.6199 68.3101 61.24C67.6101 62.6 65.6401 63.24 62.4201 63.24C58.9001 63.24 56.8368 62.31 56.2301 60.45C55.8767 59.1713 55.7249 57.8454 55.7801 56.52V14.66C55.7683 13.7886 55.805 12.9173 55.8901 12.05C56.0143 11.3471 56.2578 10.6707 56.6101 10.05C57.3101 8.68997 59.2801 8.04997 62.5001 8.04997C66.0201 8.04997 68.1068 8.98331 68.7601 10.85C69.0636 12.1334 69.1914 13.4521 69.1401 14.77V30.17H89.1401V14.66C89.1283 13.7886 89.165 12.9173 89.2501 12.05C89.3618 11.3496 89.5918 10.6733 89.9301 10.05Z" fill="#FF2D55"/>
<path d="M134.33 27.7899C134.63 24.9832 136.63 23.5766 140.33 23.5699C141.804 23.5143 143.278 23.6658 144.71 24.0199C145.135 24.13 145.532 24.3273 145.876 24.5993C146.221 24.8713 146.505 25.2121 146.71 25.5999C147.046 26.2242 147.276 26.9001 147.39 27.5999C147.48 28.4668 147.517 29.3385 147.5 30.2099V56.6399C147.517 57.508 147.48 58.3763 147.39 59.2399C147.281 59.9356 147.065 60.6102 146.75 61.2399C146.037 62.5732 144.313 63.2399 141.58 63.2399C138.83 63.2399 137 62.8999 136.07 62.2399C135.597 61.8877 135.207 61.4371 134.925 60.9191C134.644 60.4011 134.478 59.8282 134.44 59.2399C132.58 61.9066 129.473 63.2399 125.12 63.2399C120.767 63.2399 116.727 61.2399 113 57.2399C109.401 53.5336 107.388 48.5709 107.388 43.4049C107.388 38.2389 109.401 33.2762 113 29.5699C116.753 25.6232 120.867 23.6466 125.34 23.6399C126.946 23.6177 128.539 23.9275 130.02 24.5499C131.09 24.9505 132.087 25.5249 132.97 26.2499C133.471 26.7192 133.926 27.2349 134.33 27.7899ZM120.58 43.4999C120.593 44.3445 120.777 45.1778 121.121 45.9494C121.465 46.7211 121.961 47.4152 122.58 47.9899C123.191 48.6333 123.928 49.1433 124.745 49.4875C125.563 49.8317 126.443 50.0028 127.33 49.9899C128.206 50.0197 129.079 49.8569 129.886 49.5131C130.693 49.1693 131.414 48.6528 132 47.9999C133.169 46.7956 133.831 45.1883 133.85 43.5099C133.82 41.7953 133.162 40.1513 132 38.8899C131.423 38.1977 130.694 37.6474 129.871 37.2816C129.047 36.9157 128.15 36.7441 127.25 36.7799C126.337 36.7487 125.429 36.922 124.591 37.2871C123.754 37.6522 123.008 38.1998 122.41 38.8899C121.249 40.1461 120.597 41.7894 120.58 43.4999Z" fill="#FF2D55"/>
<path d="M175.32 23.64C179.8 23.64 183.917 25.64 187.67 29.64C191.262 33.3499 193.27 38.3113 193.27 43.475C193.27 48.6387 191.262 53.6001 187.67 57.31C183.937 61.2567 179.937 63.23 175.67 63.23C171.403 63.23 168.357 62.0233 166.53 59.61C166.13 62.0767 163.967 63.31 160.04 63.31C156.873 63.31 154.937 62.6433 154.23 61.31C153.915 60.6803 153.699 60.0057 153.59 59.31C153.495 58.4467 153.455 57.5783 153.47 56.71V11.56C153.455 10.6917 153.495 9.82325 153.59 8.96C153.7 8.27339 153.927 7.6106 154.26 7C154.96 5.64 156.93 5 160.15 5C163.37 5 165.23 5.68 165.89 7C166.244 7.61918 166.484 8.29644 166.6 9C166.695 9.86662 166.735 10.7383 166.72 11.61V27.31C168.733 24.87 171.6 23.6467 175.32 23.64ZM168.72 48C169.301 48.6507 170.018 49.1668 170.819 49.5122C171.62 49.8577 172.488 50.0241 173.36 50C175.107 49.9707 176.777 49.2736 178.027 48.0518C179.277 46.8301 180.011 45.1763 180.08 43.43C180.068 41.7343 179.422 40.1044 178.27 38.86C177.67 38.1756 176.926 37.6336 176.09 37.2738C175.254 36.9139 174.349 36.7452 173.44 36.78C172.531 36.7422 171.625 36.9137 170.793 37.2812C169.961 37.6488 169.224 38.2026 168.64 38.9C167.519 40.1603 166.89 41.7832 166.87 43.47C166.875 45.1629 167.539 46.7874 168.72 48Z" fill="#FF2D55"/>
<path d="M210.62 16.2C210.41 16.5811 210.124 16.9152 209.78 17.1818C209.436 17.4483 209.042 17.6417 208.62 17.75C206.112 18.3499 203.498 18.3499 200.99 17.75C200.566 17.6383 200.17 17.4403 199.825 17.1684C199.481 16.8966 199.197 16.5567 198.99 16.17C198.664 15.5416 198.434 14.8672 198.31 14.17C198.225 13.3027 198.188 12.4314 198.2 11.56C198.188 10.692 198.225 9.82392 198.31 8.96C198.428 8.27241 198.661 7.60971 199 7C199.667 5.66667 201.627 5 204.88 5C208.133 5 210.047 5.66667 210.62 7C210.972 7.62075 211.216 8.29716 211.34 9C211.43 9.86692 211.467 10.7386 211.45 11.61C211.467 12.4781 211.43 13.3464 211.34 14.21C211.217 14.9101 210.974 15.5835 210.62 16.2ZM198.2 30.2C198.188 29.3286 198.225 28.4573 198.31 27.59C198.426 26.8947 198.645 26.2206 198.96 25.59C199.66 24.29 201.62 23.59 204.84 23.59C207.26 23.59 208.973 24.0167 209.98 24.87C210.429 25.2805 210.783 25.7839 211.018 26.3451C211.253 26.9064 211.363 27.512 211.34 28.12C211.34 28.62 211.41 29.36 211.41 30.31V56.79C211.427 57.6581 211.39 58.5264 211.3 59.39C211.177 60.0932 210.934 60.7699 210.58 61.39C209.913 62.7233 207.977 63.39 204.77 63.39C201.563 63.39 199.627 62.7233 198.96 61.39C198.644 60.7599 198.425 60.0856 198.31 59.39C198.223 58.5128 198.186 57.6314 198.2 56.75V30.2Z" fill="#FF2D55"/>
<path d="M239.27 23.64C243.75 23.64 247.867 25.64 251.62 29.64C255.212 33.3499 257.22 38.3113 257.22 43.475C257.22 48.6387 255.212 53.6001 251.62 57.31C247.893 61.2567 243.893 63.23 239.62 63.23C235.347 63.23 232.3 62.0233 230.48 59.61C230.08 62.0767 227.917 63.31 223.99 63.31C220.817 63.31 218.88 62.6433 218.18 61.31C217.865 60.6803 217.649 60.0057 217.54 59.31C217.446 58.4467 217.406 57.5783 217.42 56.71V11.56C217.405 10.6917 217.445 9.82325 217.54 8.96C217.651 8.27339 217.877 7.6106 218.21 7C218.91 5.64 220.88 5 224.1 5C227.32 5 229.18 5.68 229.84 7C230.194 7.61918 230.434 8.29644 230.55 9C230.645 9.86662 230.685 10.7383 230.67 11.61V27.31C232.683 24.87 235.55 23.6467 239.27 23.64ZM232.67 48C233.252 48.6507 233.968 49.1668 234.769 49.5122C235.571 49.8577 236.438 50.0241 237.31 50C239.041 49.9642 240.693 49.2735 241.935 48.0672C243.176 46.861 243.914 45.2289 244 43.5C243.988 41.8043 243.342 40.1744 242.19 38.93C241.591 38.2456 240.846 37.7036 240.01 37.3438C239.175 36.9839 238.269 36.8152 237.36 36.85C236.451 36.8122 235.546 36.9837 234.713 37.3512C233.881 37.7188 233.144 38.2726 232.56 38.97C231.439 40.2303 230.81 41.8532 230.79 43.54C230.821 45.2128 231.494 46.8096 232.67 48Z" fill="#FF2D55"/>
<path d="M41.69 62.4999C39.8259 62.3729 38.0285 61.7553 36.48 60.7099L4.24998 41.5799C2.24998 40.5799 -2.49194e-05 38.5099 -2.49194e-05 34.1699C-0.09223 32.6383 0.268191 31.1134 1.03635 29.7851C1.80451 28.4568 2.94646 27.3839 4.31998 26.6999C21.45 16.5599 31.43 10.6299 34 9.07993C35.5832 8.01626 37.2562 7.09275 39 6.31993C39.9073 5.94951 40.88 5.76585 41.86 5.77993C45.32 5.77993 47.52 9.47993 48.24 10.6999C49.2463 12.1095 49.8542 13.7641 50 15.4899C50.0182 16.6439 49.7134 17.78 49.12 18.7699C48.1193 20.2476 46.796 21.4786 45.25 22.3699L45.15 22.4299C34.54 28.6999 28.58 32.2299 25.34 34.1599L45.15 45.9199C46.0027 46.3826 46.8096 46.925 47.56 47.5399C48.3217 48.0984 48.945 48.8243 49.3819 49.6617C49.8188 50.4991 50.0576 51.4257 50.08 52.3699C49.9898 54.1623 49.401 55.894 48.38 57.3699C47.6097 58.719 46.6386 59.9431 45.5 60.9999C44.4556 61.9481 43.1005 62.4816 41.69 62.4999ZM41.8 10.7699C41.4959 10.7673 41.1941 10.8216 40.91 10.9299C40.8068 10.9786 40.6998 11.0188 40.59 11.0499C39.2161 11.7475 37.8809 12.5187 36.59 13.3599C34 14.9199 24 20.8599 6.78998 30.9999L6.63998 31.0799C5.82998 31.5299 4.99998 32.2099 4.99998 34.1699C4.99998 36.1299 5.77998 36.7699 6.53998 37.1699L6.71997 37.2599L39 56.4099C39.7823 56.982 40.6916 57.3559 41.65 57.4999C41.862 57.4512 42.0561 57.3437 42.21 57.1899C42.9485 56.4605 43.5782 55.6286 44.08 54.7199C44.608 54.0345 44.9522 53.2256 45.08 52.3699C45.08 52.0099 44.56 51.5399 44.33 51.3699C43.7955 50.9421 43.2231 50.5639 42.62 50.2399L19.19 36.3199C18.8266 36.1041 18.5238 35.7997 18.3099 35.4352C18.0961 35.0706 17.9782 34.6578 17.9672 34.2353C17.9562 33.8128 18.0525 33.3944 18.2471 33.0192C18.4417 32.644 18.7283 32.3243 19.08 32.0899C19.35 31.9199 20.08 31.4499 42.55 18.1599C43.4236 17.6937 44.1874 17.0458 44.79 16.2599L44.86 16.1499C44.9639 15.9461 45.0122 15.7184 45 15.4899C44.7705 14.6982 44.4087 13.951 43.93 13.2799C42.59 10.9999 41.81 10.7699 41.8 10.7699Z" fill="#FF2D55"/>
<path d="M268 68.27C266.32 68.1571 264.683 67.6975 263.19 66.92C261.691 66.322 260.304 65.4733 259.09 64.41C258.591 63.9304 258.192 63.3563 257.917 62.721C257.643 62.0857 257.497 61.4021 257.49 60.71C257.594 59.1486 257.931 57.6115 258.49 56.15C258.52 56.0511 258.557 55.9542 258.6 55.86L282.91 5.04996C284.18 2.49996 285.35 1.09996 286.7 0.51996C287.584 0.143994 288.54 -0.0335088 289.5 -3.98871e-05C291.197 0.139577 292.848 0.626296 294.35 1.42996C298.04 3.20996 299.89 5.42996 299.89 8.00996C299.89 8.71996 299.75 9.82996 298.67 12.67C298.649 12.7389 298.622 12.8058 298.59 12.87L274.36 63.22C273.93 64.13 273.59 64.8 273.36 65.22C272.897 66.0172 272.261 66.7006 271.5 67.22C270.473 67.9297 269.248 68.2971 268 68.27ZM262.49 60.71C262.532 60.7667 262.579 60.8202 262.63 60.87C263.423 61.5009 264.311 62.0036 265.26 62.36C266.108 62.8314 267.038 63.14 268 63.27C268.211 63.2874 268.424 63.2531 268.62 63.17C268.773 63.0709 268.912 62.9496 269.03 62.81C269.16 62.57 269.42 62.07 269.88 61.08L294 10.8C294.41 9.9066 294.709 8.96622 294.89 7.99996C294.89 7.81996 294.4 6.99996 292.23 5.99996C291.38 5.52087 290.458 5.18313 289.5 4.99996C289.261 4.98886 289.023 5.00903 288.79 5.05996C288.211 5.70024 287.744 6.43394 287.41 7.22996L263.17 57.87C262.809 58.7825 262.564 59.7365 262.44 60.71H262.49Z" fill="#FF2D55"/>
<path d="M311 62.49C309.53 62.4949 308.108 61.9654 307 61C305.939 60.0426 305.028 58.93 304.3 57.7C302.99 55.53 302.41 54.01 302.41 52.7C302.393 51.5995 302.654 50.5125 303.17 49.54C303.197 49.4832 303.231 49.4295 303.27 49.38C304.339 47.9128 305.732 46.7117 307.34 45.87L327.19 34.12L307.4 22.44C306.607 21.9714 305.839 21.4607 305.1 20.91L305 20.82C304.234 20.2271 303.61 19.4704 303.174 18.6053C302.738 17.7402 302.501 16.7886 302.48 15.82C302.562 14.06 303.129 12.3571 304.12 10.9C306.18 7.45002 308.31 5.77002 310.64 5.77002C312.579 5.85275 314.455 6.48384 316.05 7.59002L348.16 26.69C349.533 27.374 350.675 28.4469 351.444 29.7752C352.212 31.1035 352.572 32.6284 352.48 34.16C352.48 38.5 350.19 40.58 348.23 41.57L316.07 60.72C314.586 61.7864 312.825 62.401 311 62.49ZM307.45 52.76C307.72 53.5876 308.107 54.3723 308.6 55.09C309.053 55.8724 309.619 56.5834 310.28 57.2C310.49 57.38 311.18 57.96 313.48 56.47L345.8 37.25L345.99 37.15C346.75 36.78 347.53 36.15 347.53 34.15C347.53 32.15 346.7 31.51 345.89 31.1C345.834 31.0794 345.78 31.0526 345.73 31.02L313.44 11.87C312.624 11.2588 311.655 10.885 310.64 10.79C310.64 10.79 309.86 11.06 308.41 13.49C307.904 14.1808 307.584 14.99 307.48 15.84C307.521 16.0726 307.607 16.2949 307.734 16.494C307.861 16.693 308.026 16.865 308.22 17C308.5 17.21 309.02 17.57 309.98 18.16L333.36 32C333.733 32.2227 334.042 32.5383 334.256 32.9161C334.47 33.2938 334.583 33.7207 334.583 34.155C334.583 34.5893 334.47 35.0162 334.256 35.394C334.042 35.7717 333.733 36.0873 333.36 36.31L309.88 50.23C308.985 50.6943 308.182 51.3178 307.51 52.07C307.43 52.2909 307.392 52.5251 307.4 52.76H307.45Z" fill="#FF2D55"/>
</g>
<defs>
<clipPath id="clip0_4305_157">
<rect width="352.48" height="68.27" fill="white"/>
</clipPath>
</defs>
</svg>
