<svg width="32" height="32" viewBox="0 0 32 32" fill="none" xmlns="http://www.w3.org/2000/svg">
<g clip-path="url(#clip0_4303_147)">
<path d="M27.62 0H4.38C1.96099 0 0 1.96099 0 4.38V27.62C0 30.039 1.96099 32 4.38 32H27.62C30.039 32 32 30.039 32 27.62V4.38C32 1.96099 30.039 0 27.62 0Z" fill="white"/>
<path d="M21.6002 2.76001C21.7135 2.5597 21.8656 2.384 22.0476 2.2432C22.2296 2.1024 22.4379 1.99932 22.6602 1.94001C23.2681 1.76837 23.8988 1.69081 24.5302 1.71001C25.1361 1.69076 25.7417 1.75469 26.3302 1.90001C26.6892 1.99491 27.028 2.15415 27.3302 2.37001C27.5843 2.57216 27.7751 2.84282 27.8802 3.15001C28.0337 3.80511 28.101 4.47748 28.0802 5.15001V26.86C28.0813 27.3079 28.0546 27.7554 28.0002 28.2C27.9352 28.5521 27.81 28.8904 27.6302 29.2C27.2602 29.9 26.2502 30.25 24.5802 30.25C22.9102 30.25 21.6902 29.77 21.3802 28.81C21.1946 28.1603 21.1136 27.4852 21.1402 26.81V18.89H10.8302V26.89C10.8379 27.3375 10.8179 27.785 10.7702 28.23C10.7009 28.5809 10.576 28.9185 10.4002 29.23C10.0302 29.93 9.0202 30.28 7.3502 30.28C5.6802 30.28 4.4602 29.8 4.1502 28.84C3.96464 28.1903 3.88362 27.5152 3.9102 26.84V5.14001C3.91271 4.69192 3.94276 4.24441 4.0002 3.80001C4.06524 3.44791 4.1904 3.10964 4.3702 2.80001C4.7402 2.10001 5.7502 1.80001 7.4202 1.80001C9.2402 1.80001 10.3202 2.28001 10.6602 3.24001C10.8137 3.89511 10.881 4.56748 10.8602 5.24001V13.24H21.1702V5.24001C21.1628 4.79254 21.1828 4.34503 21.2302 3.90001C21.2842 3.50091 21.4095 3.11476 21.6002 2.76001Z" fill="#FF2D55"/>
</g>
<defs>
<clipPath id="clip0_4303_147">
<rect width="32" height="32" fill="white"/>
</clipPath>
</defs>
</svg>
